HIERARCHY
ROOT Hips
{
	OFFSET 0.000000 0.000000 0.000000 
	CHANNELS 6 Xposition Yposition Zposition Yrotation Zrotation Xrotation 
	JOINT Lumbar
	{
		OFFSET 0.000000 0.000000 0.000000 
		CHANNELS 3 Zrotation Xrotation Yrotation
		JOINT Neck
		{
			OFFSET 0.000000 0.445665 0.000000 
			CHANNELS 3 Zrotation Xrotation Yrotation
			End Site
			{
				OFFSET 0.000000 0.227535 0.000000 
			}
		}
		JOINT RightShoulder
		{
			OFFSET 0.019635 0.377685 0.194865 
			CHANNELS 3 Zrotation Xrotation Yrotation
			JOINT RightElbow
			{
				OFFSET 0.000000 -0.243375 0.000000 
				CHANNELS 2 Zrotation Yrotation
				JOINT RightWrist
				{
					OFFSET 0.000000 -0.264825 0.000000 
					CHANNELS 2 Zrotation Xrotation
					End Site
					{
						OFFSET 0.006600 -0.176220 0.000990 
					}
				}
			}
		}
		JOINT LeftShoulder
		{
			OFFSET 0.019635 0.377685 -0.194865 
			CHANNELS 3 Zrotation Xrotation Yrotation
			JOINT LeftElbow
			{
				OFFSET 0.000000 -0.243375 0.000000 
				CHANNELS 2 Zrotation Yrotation
				JOINT LeftWrist
				{
					OFFSET 0.000000 -0.264825 0.000000 
					CHANNELS 2 Zrotation Xrotation
					End Site
					{
						OFFSET 0.006600 -0.176220 -0.000990 
					}
				}
			}
		}
	}
	JOINT RightHip
	{
		OFFSET 0.052140 -0.069960 0.075570 
		CHANNELS 3 Zrotation Xrotation Yrotation
		JOINT RightKnee
		{
			OFFSET 0.000000 -0.402270 0.000000 
			CHANNELS 1 Zrotation
			JOINT RightAnkle
			{
				OFFSET 0.000000 -0.404085 0.000000 
				CHANNELS 3 Zrotation Xrotation Yrotation
				End Site
				{
					OFFSET 0.204105 -0.089430 0.008415 
				}
			}
		}
	}
	JOINT LeftHip
	{
		OFFSET 0.052140 -0.069960 -0.075570 
		CHANNELS 3 Zrotation Xrotation Yrotation
		JOINT LeftKnee
		{
			OFFSET 0.000000 -0.402270 0.000000 
			CHANNELS 1 Zrotation
			JOINT LeftAnkle
			{
				OFFSET 0.000000 -0.404085 0.000000 
				CHANNELS 3 Zrotation Xrotation Yrotation
				End Site
				{
					OFFSET 0.204105 -0.089430 -0.008415 
				}
			}
		}
	}
}
MOTION
Frames: 28
Frame Time: 0.02
-0.00017 -3e-05 9e-05 -179.64975 -39.87426 -3.22849 48.506 2.83375 -1.26776 -11.85966 -2.4624 -0.61987 51.75203 -102.43096 64.17005 8.43007 89.76072 12.05598 -1.81255 20.92305 105.05742 -64.16953 9.73924 -85.53152 6.90783 3.10876 44.73647 -4.50342 2.90862 -21.88286 -7.49124 -4.29233 -2.96863 48.73886 8.96978 -6.71152 -27.08926 -7.52941 4.18723 2.87081
-0.00023 -4e-05 0.0001 -179.65497 -39.8817 -3.22919 48.50029 2.83331 -1.27655 -11.86631 -2.46571 -0.61982 51.9674 -102.41988 64.17004 8.39757 89.77478 12.09364 -1.79104 21.12487 105.01426 -64.16957 9.72634 -85.52557 6.9982 3.08395 44.74263 -4.54037 2.72013 -21.88421 -7.48282 -4.27945 -2.95707 48.74524 9.01364 -6.52931 -27.09027 -7.5183 4.16707 2.85987
-0.00029 -5e-05 0.00012 -179.66011 -39.8888 -3.22986 48.49427 2.83285 -1.28537 -11.87298 -2.469 -0.61977 52.18216 -102.40883 64.17004 8.36517 89.7888 12.13118 -1.7696 21.32612 104.97124 -64.16961 9.71352 -85.51962 7.08826 3.05921 44.74837 -4.57725 2.53201 -21.88553 -7.47441 -4.26659 -2.94553 48.75124 9.05738 -6.34755 -27.09127 -7.50721 4.14695 2.84896
-0.00035 -6e-05 0.00013 -179.66531 -39.89615 -3.23056 48.4885 2.8324 -1.29414 -11.87961 -2.4723 -0.61972 52.39689 -102.39779 64.17003 8.33277 89.80282 12.16872 -1.74816 21.52733 104.92822 -64.16965 9.70067 -85.51368 7.17834 3.03449 44.75443 -4.6141 2.34408 -21.88688 -7.46601 -4.25375 -2.934 48.75754 9.1011 -6.16589 -27.09228 -7.49613 4.12684 2.83806
-0.00041 -6e-05 0.00014 -179.67062 -39.90401 -3.23129 48.48319 2.83199 -1.30286 -11.88621 -2.47562 -0.61966 52.61219 -102.38673 64.17003 8.30028 89.81687 12.20639 -1.72667 21.72909 104.88507 -64.16969 9.68773 -85.50775 7.26876 3.0097 44.76108 -4.651 2.15581 -21.88827 -7.45761 -4.24089 -2.92244 48.7644 9.14493 -5.98381 -27.09332 -7.48504 4.1067 2.82714
-0.00048 -7e-05 0.00016 -179.67541 -39.90953 -3.23186 48.47571 2.83143 -1.31189 -11.89303 -2.47884 -0.61966 52.82579 -102.37568 64.17002 8.26807 89.83083 12.24365 -1.70534 21.92927 104.84231 -64.16972 9.67515 -85.50178 7.35806 2.98506 44.76493 -4.68783 1.96801 -21.88945 -7.44918 -4.22802 -2.91093 48.76862 9.1885 -5.80272 -27.09423 -7.47396 4.08663 2.81626
-0.00054 -8e-05 0.00017 -179.68123 -39.91966 -3.23275 48.47251 2.83115 -1.3203 -11.8994 -2.48226 -0.61953 53.04261 -102.36464 64.17002 8.23533 89.84497 12.28168 -1.6837 22.1324 104.79883 -64.16976 9.66187 -85.49588 7.44948 2.96015 44.77432 -4.72476 1.77958 -21.89104 -7.44082 -4.21521 -2.89936 48.77804 9.23253 -5.61988 -27.0954 -7.46286 4.06643 2.80531
-0.0006 -9e-05 0.00018 -179.68614 -39.92569 -3.23335 48.46551 2.83063 -1.32925 -11.90617 -2.4855 -0.61952 53.25643 -102.35358 64.17001 8.20308 89.85894 12.31901 -1.66234 22.33281 104.75599 -64.1698 9.64922 -85.48993 7.53899 2.93549 44.77878 -4.76163 1.59154 -21.89227 -7.43239 -4.20232 -2.88783 48.78284 9.27616 -5.43857 -27.09633 -7.45178 4.04635 2.79441
-0.00066 -0.0001 0.00019 -179.68975 -39.92605 -3.23356 48.45321 2.82976 -1.33897 -11.91348 -2.48851 -0.61968 53.4668 -102.34251 64.17001 8.1714 89.87273 12.35548 -1.64132 22.52997 104.71398 -64.16984 9.63739 -85.48385 7.62603 2.91115 44.77642 -4.79831 1.40461 -21.89299 -7.42389 -4.1894 -2.87639 48.78125 9.31922 -5.25939 -27.09696 -7.44072 4.02644 2.78361
-0.00072 -0.00011 0.00021 -179.70028 -39.95703 -3.2359 48.46944 2.83074 -1.34462 -11.91785 -2.49282 -0.61891 53.69767 -102.33154 64.17 8.13635 89.88761 12.3969 -1.61835 22.74608 104.66737 -64.16988 9.62102 -85.47831 7.72687 2.88498 44.81091 -4.83574 1.2132 -21.89643 -7.41584 -4.17686 -2.86455 48.81419 9.36531 -5.06873 -27.09927 -7.42954 4.0056 2.77235
-0.00078 -0.00012 0.00022 -179.69656 -39.92474 -3.23384 48.42679 2.82789 -1.35862 -11.92834 -2.4944 -0.62006 53.88486 -102.32035 64.17 8.10847 89.90016 12.42787 -1.59951 22.92201 104.63033 -64.16992 9.6141 -85.47178 7.79885 2.86269 44.76923 -4.87179 1.03004 -21.89426 -7.4068 -4.1634 -2.85348 48.77575 9.40515 -4.9018 -27.0981 -7.41861 3.98669 2.76202
-0.00089 -0.00012 0.00023 -179.65039 -39.70635 -3.21868 48.21015 2.81378 -1.39774 -11.9564 -2.48832 -0.62681 53.9547 -102.30851 64.17 8.09973 89.90639 12.42982 -1.59179 22.98844 104.62109 -64.16992 9.63458 -85.46131 7.78877 2.85098 44.50359 -4.90233 0.87979 -21.8755 -7.39533 -4.14821 -2.84528 48.52758 9.42641 -4.8047 -27.0867 -7.40843 3.97354 2.75449
-0.001 -0.00012 0.00023 -179.59054 -39.42694 -3.19929 47.93687 2.79595 -1.44481 -11.99044 -2.47954 -0.63541 53.98037 -102.29644 64.17 8.09826 89.91027 12.42135 -1.58823 23.01442 104.62119 -64.1699 9.66432 -85.45008 7.75018 2.84319 44.16447 -4.93177 0.73619 -21.85133 -7.38281 -4.13196 -2.83773 48.21052 9.44162 -4.73066 -27.07193 -7.3985 3.96226 2.74785
-0.00111 -0.00011 0.00023 -179.53907 -39.18335 -3.18248 47.69738 2.78029 -1.48685 -12.02126 -2.47211 -0.64292 54.02439 -102.28451 64.17 8.09383 89.91515 12.41789 -1.58291 23.05836 104.61604 -64.1699 9.68884 -85.43997 7.72656 2.83365 43.86843 -4.96293 0.58247 -21.83039 -7.37057 -4.11566 -2.82939 47.93373 9.46056 -4.64286 -27.05913 -7.3884 3.94981 2.74062
-0.00122 -0.00011 0.00024 -179.4783 -38.90466 -3.16284 47.42302 2.76255 -1.535 -12.0543 -2.46416 -0.6515 54.0749 -102.27245 64.17 8.08805 89.92026 12.41326 -1.5771 23.10383 104.61516 -64.16989 9.71752 -85.42657 7.6946 2.82396 43.53037 -4.98916 0.45758 -21.8061 -7.35912 -4.10155 -2.82312 47.61804 9.47546 -4.56851 -27.04442 -7.37848 3.93868 2.73413
-0.00134 -0.00011 0.00024 -179.43382 -38.68563 -3.14815 47.20884 2.7483 -1.57219 -12.08403 -2.45667 -0.65828 54.10228 -102.26059 64.17 8.08668 89.92438 12.40859 -1.57322 23.13673 104.60756 -64.16989 9.73988 -85.41988 7.673 2.81554 43.26361 -5.02511 0.27567 -21.78758 -7.34582 -4.08268 -2.81275 47.36818 9.49721 -4.47217 -27.03294 -7.3683 3.92532 2.72635
-0.00145 -0.00012 0.00023 -179.43639 -38.63753 -3.14766 47.16628 2.7444 -1.57828 -12.10396 -2.45107 -0.6595 54.06936 -102.24955 64.17 8.09661 89.92613 12.40632 -1.57448 23.14366 104.57958 -64.16989 9.74126 -85.43152 7.68928 2.80934 43.2015 -5.09052 -0.07793 -21.78586 -7.32725 -4.05063 -2.79036 47.30716 9.54056 -4.30431 -27.0308 -7.35688 3.9047 2.71431
-0.00156 -0.00014 0.00021 -179.45604 -38.65297 -3.15238 47.18759 2.74416 -1.5729 -12.12019 -2.44606 -0.65885 54.01607 -102.23866 64.17 8.11053 89.92702 12.40433 -1.57741 23.13977 104.54444 -64.1699 9.73618 -85.45001 7.7166 2.8043 43.21529 -5.16531 -0.48685 -21.7902 -7.30692 -4.01391 -2.76394 47.31631 9.59081 -4.11435 -27.03208 -7.34526 3.88191 2.70101
-0.00168 -0.00015 0.00019 -179.46879 -38.6454 -3.15506 47.18557 2.7424 -1.572 -12.1376 -2.44082 -0.65912 53.97683 -102.22756 64.17 8.12203 89.92843 12.40227 -1.57906 23.1414 104.51227 -64.16991 9.73486 -85.46563 7.7373 2.79903 43.20145 -5.23424 -0.86208 -21.7921 -7.28765 -3.97952 -2.73975 47.30016 9.63704 -3.93801 -27.03205 -7.33403 3.86057 2.6886
-0.00179 -0.00016 0.00017 -179.4776 -38.612 -3.15629 47.15861 2.73997 -1.57433 -12.15737 -2.43531 -0.65919 53.91571 -102.21712 64.17001 8.1364 89.92917 12.39976 -1.58306 23.1383 104.48156 -64.1699 9.73042 -85.48026 7.76358 2.79287 43.15736 -5.30985 -1.27293 -21.79254 -7.26725 -3.94417 -2.7139 47.25502 9.68664 -3.74786 -27.03092 -7.32157 3.83734 2.67493
-0.0019 -0.00018 0.00015 -179.49862 -38.64694 -3.16175 47.1981 2.73979 -1.56729 -12.17124 -2.43054 -0.65918 53.89605 -102.20524 64.17001 8.14557 89.93117 12.39822 -1.5825 23.14398 104.44608 -64.16994 9.7308 -85.4985 7.78147 2.78849 43.19365 -5.37383 -1.62311 -21.79744 -7.24882 -3.9098 -2.69055 47.28628 9.73112 -3.5803 -27.03288 -7.3116 3.81747 2.66352
-0.00199 -0.00019 0.00012 -179.5513 -38.86725 -3.17823 47.41791 2.74539 -1.53564 -12.16978 -2.42764 -0.6594 53.9946 -102.19031 64.17001 8.14 89.93652 12.4008 -1.56887 23.16834 104.39838 -64.17013 9.74622 -85.52576 7.7714 2.79142 43.4477 -5.40307 -1.78978 -21.81408 -7.23613 -3.87867 -2.67495 47.52487 9.75837 -3.48599 -27.04309 -7.30888 3.8078 2.65911
-0.00207 -0.00021 9e-05 -179.61535 -39.15225 -3.19869 47.70043 2.75307 -1.49522 -12.16248 -2.42546 -0.65958 54.13595 -102.17378 64.17001 8.12894 89.94321 12.4041 -1.55062 23.20355 104.34623 -64.17036 9.76665 -85.5563 7.75295 2.79561 43.77777 -5.42034 -1.89395 -21.83485 -7.22553 -3.84883 -2.66202 47.8358 9.78049 -3.41411 -27.05622 -7.30861 3.80148 2.65694
-0.00216 -0.00022 6e-05 -179.67287 -39.39984 -3.21694 47.94627 2.75951 -1.45982 -12.15773 -2.42297 -0.65976 54.25889 -102.1573 64.17001 8.1199 89.94955 12.40619 -1.53449 23.23952 104.2966 -64.17056 9.78467 -85.58485 7.74 2.79746 44.06389 -5.44334 -2.02847 -21.85317 -7.21409 -3.8188 -2.64795 48.10498 9.80592 -3.32817 -27.06769 -7.307 3.79333 2.65345
-0.00225 -0.00024 4e-05 -179.73673 -39.68315 -3.23706 48.22854 2.76733 -1.41969 -12.15317 -2.42049 -0.65997 54.3771 -102.14353 64.17001 8.11284 89.95486 12.41212 -1.51823 23.25151 104.24465 -64.17081 9.80307 -85.61571 7.72065 2.80675 44.39206 -5.46552 -2.15692 -21.87412 -7.2021 -3.78689 -2.63344 48.41375 9.82753 -3.2575 -27.08068 -7.30635 3.78641 2.6512
-0.00233 -0.00025 1e-05 -179.78986 -39.90694 -3.25418 48.44938 2.77271 -1.3874 -12.14704 -2.4181 -0.66012 54.51512 -102.12391 64.17001 8.10049 89.96255 12.41008 -1.50124 23.31564 104.19655 -64.17097 9.82192 -85.6425 7.71201 2.80091 44.65005 -5.48638 -2.28215 -21.89049 -7.19179 -3.7593 -2.62054 48.65666 9.8557 -3.161 -27.09116 -7.3043 3.77778 2.64693
-0.0024 -0.00026 -2e-05 -179.81041 -39.94758 -3.26197 48.48159 2.77088 -1.37954 -12.13652 -2.41604 -0.66014 54.70156 -102.08715 64.17 8.07333 89.97717 12.38717 -1.48241 23.52569 104.16027 -64.17084 9.841 -85.65672 7.73935 2.7522 44.69232 -5.50676 -2.41584 -21.89309 -7.18553 -3.74323 -2.61128 48.69684 9.90399 -2.98522 -27.09387 -7.29769 3.76352 2.63639
-0.00247 -0.00027 -6e-05 -179.8197 -39.92632 -3.26661 48.45016 2.7665 -1.37981 -12.12493 -2.414 -0.66011 54.90576 -102.04486 64.17 8.04131 89.99401 12.35598 -1.46318 23.78707 104.12804 -64.17062 9.86035 -85.66679 7.77692 2.68839 44.66157 -5.52611 -2.54764 -21.89093 -7.18089 -3.73151 -2.60358 48.66848 9.9588 -2.7836 -27.09394 -7.28963 3.74749 2.62381
